#!OML:ASF F:\twosubjects\two\Thursday\Session 1\justin.ASF
:FULLY-SPECIFIED
:DEGREES
488
root 11.1599 18.4075 11.8709 -172.664 -22.6579 -177.27
lowerback -2.4767 2.04192 -6.18435
upperback 1.31768 2.26762 9.10825
thorax 2.14544 0.7628 13.4979
lowerneck -22.742 0.0154489 -9.52311
upperneck 28.0951 3.79675 -3.27954
head 13.2267 -0.233826 0.890589
rclavicle -5.24792e-014 -2.38542e-014
rhumerus -25.7463 -6.07518 -74.1407
rradius 27.5312
rwrist -6.88103
rhand -13.7078 10.9081
rfingers 7.12502
rthumb 12.4109 -18.7035
lclavicle -5.24792e-014 -2.38542e-014
lhumerus -28.8232 -4.17922 103.849
lradius 31.6009
lwrist -3.15047
lhand -3.58446 37.0736
lfingers 7.12502
lthumb 22.1529 65.8244
rfemur -18.3 -8.4225 24.1622
rtibia 31.2651
rfoot -17.1391 -19.7913
rtoes -10.6536
lfemur -11.9546 -2.38947 -11.9749
ltibia 17.331
lfoot -11.6529 -17.2553
ltoes -1.1043
489
root 11.144 18.4084 11.8791 -172.802 -23.0832 -177.55
lowerback -2.27953 1.95348 -6.48523
upperback 1.36259 2.17527 9.01289
thorax 2.1003 0.72108 13.5648
lowerneck -22.4785 0.434627 -9.49559
upperneck 27.77 4.32735 -3.17238
head 13.0129 0.0478665 1.02135
rclavicle -1.70955e-014 -8.74653e-014
rhumerus -25.8113 -6.08098 -74.1644
rradius 27.2998
rwrist -6.80101
rhand -14.0467 11.7939
rfingers 7.12502
rthumb 12.0841 -17.8372
lclavicle -1.70955e-014 -8.74653e-014
lhumerus -28.7891 -4.27289 103.734
lradius 31.8056
lwrist -2.99151
lhand -4.00868 36.9758
lfingers 7.12502
lthumb 21.7456 65.7743
rfemur -18.0012 -8.8682 23.8201
rtibia 31.2546
rfoot -17.3025 -19.8036
rtoes -10.6898
lfemur -11.8292 -2.49761 -12.3019
ltibia 17.372
lfoot -11.5045 -17.7985
ltoes -1.06456
490
root 11.1248 18.4126 11.8845 -172.998 -23.4879 -177.657
lowerback -2.12319 1.88438 -6.64748
upperback 1.38109 2.0925 8.98088
thorax 2.05046 0.682589 13.6211
lowerneck -22.4178 0.908338 -9.35335
upperneck 27.8308 4.95977 -3.18317
head 13.0043 0.33332 1.10164
rclavicle 6.16232e-014 -9.38264e-014
rhumerus -26.0768 -5.96401 -74.1592
rradius 27.236
rwrist -6.91296
rhand -13.4321 11.8052
rfingers 7.12502
rthumb 12.6766 -17.7901
lclavicle 6.16232e-014 -9.38264e-014
lhumerus -29.1816 -4.01531 103.603
lradius 32.5348
lwrist -3.19809
lhand -4.38013 36.6617
lfingers 7.12502
lthumb 21.3889 65.5012
rfemur -17.641 -9.08267 23.6222
rtibia 31.1874
rfoot -17.3797 -20.0292
rtoes -11.0707
lfemur -11.6786 -2.77082 -12.4344
ltibia 17.4114
lfoot -11.2313 -18.1033
ltoes -0.296589
491
root 11.1023 18.4095 11.895 -173.108 -23.7485 -177.507
lowerback -2.16119 1.97111 -6.47504
upperback 1.34614 2.21523 8.90935
thorax 2.00945 0.755919 13.431
lowerneck -22.1678 1.37133 -8.78791
upperneck 27.6826 5.49846 -3.56263
head 12.9021 0.589414 0.951906
rclavicle -6.20208e-014 -2.38542e-014
rhumerus -26.4209 -6.2511 -74.1101
rradius 27.1744
rwrist -6.94306
rhand -14.3456 10.9382
rfingers 7.12502
rthumb 11.7958 -18.7096
lclavicle -6.20208e-014 -2.38542e-014
lhumerus -29.4175 -4.00675 103.45
lradius 32.9086
lwrist -3.55094
lhand -4.44764 36.6726
lfingers 7.12502
lthumb 21.324 65.5194
rfemur -17.5116 -9.11758 23.6947
rtibia 31.0688
rfoot -17.2193 -20.2792
rtoes -11.8202
lfemur -11.7335 -2.77595 -12.3425
ltibia 17.5119
lfoot -11.2256 -18.404
ltoes 0.747007
492
root 11.0843 18.3999 11.9086 -173.228 -24.0568 -177.364
lowerback -2.15365 2.07416 -6.26204
upperback 1.37886 2.354 8.83275
thorax 2.01285 0.831696 13.2106
lowerneck -21.6976 1.97153 -7.71984
upperneck 27.0694 6.18027 -4.51636
head 12.6124 0.918314 0.52243
rclavicle 2.38542e-015 9.85972e-014
rhumerus -26.5763 -6.77767 -74.0442
rradius 27.0823
rwrist -6.66545
rhand -14.4164 10.1317
rfingers 7.12502
rthumb 11.7276 -19.52
lclavicle 2.38542e-015 9.85972e-014
lhumerus -29.1257 -4.21466 103.318
lradius 32.8345
lwrist -3.75836
lhand -3.94631 36.6472
lfingers 7.12502
lthumb 21.8055 65.4387
rfemur -17.3984 -9.00144 23.7532
rtibia 30.9996
rfoot -16.9924 -20.6322
rtoes -12.5228
lfemur -11.8129 -2.52736 -12.2602
ltibia 17.6241
lfoot -11.3476 -18.8828
ltoes 1.05723
493
root 11.0631 18.395 11.9284 -173.084 -24.5155 -177.608
lowerback -2.07236 2.05038 -6.23336
upperback 1.39424 2.34377 8.65501
thorax 1.99491 0.838137 12.9811
lowerneck -22.2367 2.32152 -7.82196
upperneck 27.1141 6.82301 -4.54122
head 12.7288 1.17694 0.644978
rclavicle -1.10524e-013 -1.47896e-013
rhumerus -26.6457 -6.91375 -74.1327
rradius 27.1105
rwrist -6.69805
rhand -15.1515 10.7957
rfingers 7.12502
rthumb 11.0186 -18.8951
lclavicle -1.10524e-013 -1.47896e-013
lhumerus -28.8294 -4.82391 103.279
lradius 32.9881
lwrist -3.35644
lhand -3.5881 36.7725
lfingers 7.12502
lthumb 22.1495 65.5237
rfemur -17.4993 -8.8052 23.3922
rtibia 31.0989
rfoot -16.9242 -21.1519
rtoes -11.7768
lfemur -12.0115 -2.57353 -12.5364
ltibia 17.5979
lfoot -10.8508 -19.4317
ltoes 1.65907
494
root 11.0413 18.3989 11.9479 -172.749 -25.1432 -178.186
lowerback -1.99465 1.95631 -6.51438
upperback 1.26401 2.27917 8.33994
thorax 1.83387 0.838124 12.7799
lowerneck -22.3212 2.79699 -7.57158
upperneck 27.1901 7.45051 -4.55255
head 12.7731 1.47354 0.708178
rclavicle -3.77691e-014 1.59028e-015
rhumerus -26.9658 -7.16887 -74.1988
rradius 27.0666
rwrist -6.7068
rhand -15.4556 11.3119
rfingers 7.12502
rthumb 10.7253 -18.3943
lclavicle -3.77691e-014 1.59028e-015
lhumerus -29.0245 -5.69511 103.233
lradius 33.4948
lwrist -2.73243
lhand -3.52254 37.2485
lfingers 7.12502
lthumb 22.2124 65.9922
rfemur -17.7422 -9.09146 22.7407
rtibia 31.3311
rfoot -17.1191 -21.4516
rtoes -10.7894
lfemur -12.2505 -2.92354 -13.1356
ltibia 17.4793
lfoot -10.3062 -20.0378
ltoes 2.20857
495
root 11.0222 18.4158 11.9596 -172.733 -25.6431 -178.424
lowerback -1.90401 1.93846 -6.61193
upperback 1.19124 2.28816 8.13299
thorax 1.70877 0.864873 12.594
lowerneck -22.1492 3.33549 -7.1182
upperneck 27.1811 8.09366 -4.70274
head 12.7483 1.78847 0.683442
rclavicle -2.54444e-014 2.22639e-014
rhumerus -27.2148 -7.63162 -74.1707
rradius 26.7127
rwrist -6.40049
rhand -15.2479 11.2861
rfingers 7.12502
rthumb 10.9256 -18.4097
lclavicle -2.54444e-014 2.22639e-014
lhumerus -29.0606 -5.87144 103.046
lradius 33.5732
lwrist -2.73443
lhand -3.2913 37.384
lfingers 7.12502
lthumb 22.4344 66.1011
rfemur -17.7415 -9.83628 22.4937
rtibia 31.6139
rfoot -17.5825 -21.1845
rtoes -10.7299
lfemur -12.2265 -3.05865 -13.432
ltibia 17.3395
lfoot -10.3315 -20.6241
ltoes 3.16839
496
root 10.9937 18.4246 11.9693 -173.019 -25.7162 -178.188
lowerback -1.91048 2.10138 -6.15514
upperback 1.30246 2.4981 8.00018
thorax 1.79898 0.970728 12.1654
lowerneck -22.2087 3.86919 -6.73774
upperneck 27.181 8.79408 -4.85728
head 12.7764 2.11613 0.683616
rclavicle -1.78906e-014 -3.18055e-014
rhumerus -27.3553 -8.11836 -74.2246
rradius 26.5212
rwrist -6.18766
rhand -15.2117 11.3845
rfingers 7.12502
rthumb 10.9606 -18.3094
lclavicle -1.78906e-014 -3.18055e-014
lhumerus -28.7341 -5.67906 102.71
lradius 33.3384
lwrist -3.14215
lhand -2.83127 37.2411
lfingers 7.12502
lthumb 22.8759 65.9042
rfemur -17.6031 -10.065 22.6368
rtibia 31.88
rfoot -17.7123 -21.0115
rtoes -12.4586
lfemur -11.9595 -3.11915 -13.3103
ltibia 17.1663
lfoot -10.3812 -20.7487
ltoes 4.25339
497
root 10.9582 18.4232 11.981 -173.296 -25.7839 -177.847
lowerback -2.01591 2.32099 -5.47092
upperback 1.4351 2.77735 7.82981
thorax 1.96711 1.11072 11.5653
lowerneck -22.19 4.35701 -6.21823
upperneck 27.0365 9.38214 -5.06845
head 12.7452 2.41733 0.620458
rclavicle -2.42517e-014 -7.79236e-014
rhumerus -27.5252 -9.05308 -74.2279
rradius 26.277
rwrist -5.66561
rhand -15.5521 11.6117
rfingers 7.12502
rthumb 10.6322 -18.0993
lclavicle -2.42517e-014 -7.79236e-014
lhumerus -28.4292 -6.04507 102.425
lradius 33.3485
lwrist -3.14574
lhand -2.69621 37.3664
lfingers 7.12502
lthumb 23.0055 66.0135
rfemur -17.4855 -9.74708 22.7904
rtibia 32.0233
rfoot -17.6234 -21.3143
rtoes -12.965
lfemur -11.8308 -3.30526 -13.1051
ltibia 17.1825
lfoot -10.3996 -20.6832
ltoes 3.10536
498
root 10.9356 18.4219 11.9939 -173.52 -25.994 -177.666
lowerback -1.94509 2.46779 -5.12918
upperback 1.46358 2.97293 7.68969
thorax 1.93461 1.22011 11.1986
lowerneck -21.6891 4.89073 -5.55131
upperneck 26.4709 9.96181 -5.50439
head 12.4759 2.74078 0.433487
rclavicle -9.78021e-014 1.59028e-014
rhumerus -27.8147 -9.65077 -74.2393
rradius 26.1185
rwrist -5.34145
rhand -16.2258 11.3017
rfingers 7.12502
rthumb 9.98234 -18.4416
lclavicle -9.78021e-014 1.59028e-014
lhumerus -28.2523 -6.56743 102.256
lradius 33.4351
lwrist -2.86515
lhand -2.91293 37.5993
lfingers 7.12502
lthumb 22.7975 66.2722
rfemur -17.3143 -9.66562 22.8263
rtibia 32.0594
rfoot -17.6502 -21.5125
rtoes -11.9917
lfemur -11.8732 -3.1957 -13.0274
ltibia 17.4389
lfoot -10.361 -21.0992
ltoes 2.16043
499
root 10.9166 18.4023 12.0113 -173.512 -26.6483 -177.959
lowerback -1.78432 2.46624 -5.1605
upperback 1.4154 3.0074 7.39762
thorax 1.79987 1.26084 10.8781
lowerneck -21.1495 5.4575 -5.00496
upperneck 25.9785 10.5659 -5.69136
head 12.2124 3.09731 0.361315
rclavicle 7.31528e-014 -4.45278e-014
rhumerus -28.3502 -9.82002 -74.3988
rradius 26.7426
rwrist -5.90663
rhand -15.0652 9.37175
rfingers 7.12502
rthumb 11.1019 -20.3146
lclavicle 7.31528e-014 -4.45278e-014
lhumerus -28.1659 -7.18748 102.048
lradius 33.5659
lwrist -2.70818
lhand -2.98474 37.5728
lfingers 7.12502
lthumb 22.7286 66.2541
rfemur -17.1983 -10.1144 22.4765
rtibia 32.0619
rfoot -17.4774 -21.9138
rtoes -13.8717
lfemur -12.0608 -3.15776 -13.3617
ltibia 17.6959
lfoot -10.0066 -22.0033
ltoes 3.44393
500
root 10.8549 18.3982 12.0056 -172.633 -27.7254 -178.601
lowerback -2.86087 2.30492 -5.03466
upperback 1.24728 2.87061 6.86487
thorax 2.29643 1.20091 10.2565
lowerneck -20.915 5.97553 -4.5153
upperneck 25.9435 11.1272 -5.665
head 12.177 3.41709 0.379874
rclavicle -2.96189e-014 -2.38542e-014
rhumerus -28.8206 -10.6227 -74.3492
rradius 26.5886
rwrist -5.71962
rhand -12.3922 9.45957
rfingers 7.12502
rthumb 13.679 -20.0709
lclavicle -2.96189e-014 -2.38542e-014
lhumerus -28.1137 -7.81823 101.782
lradius 33.6502
lwrist -2.79494
lhand -2.9325 37.3952
lfingers 7.12502
lthumb 22.7787 66.0704
rfemur -17.7508 -11.0309 21.8727
rtibia 32.0994
rfoot -17.5227 -22.2584
rtoes -13.8222
lfemur -12.9648 -3.4804 -14.0302
ltibia 17.9799
lfoot -9.88576 -22.9104
ltoes 4.32789
501
root 10.8232 18.4054 12.0011 -172.393 -28.8773 -178.845
lowerback -3.22585 2.16574 -4.86593
upperback 1.13269 2.72169 6.52795
thorax 2.43851 1.14018 9.79286
lowerneck -20.618 6.44896 -3.98329
upperneck 25.7728 11.6485 -5.83443
head 12.0983 3.7047 0.309199
rclavicle -1.41932e-013 -1.74931e-014
rhumerus -29.1934 -11.4026 -74.3458
rradius 26.3443
rwrist -5.31016
rhand -13.8944 10.4589
rfingers 7.12502
rthumb 12.231 -19.1634
lclavicle -1.41932e-013 -1.74931e-014
lhumerus -28.0678 -8.16112 101.486
lradius 33.6802
lwrist -2.89916
lhand -2.95383 37.0529
lfingers 7.12502
lthumb 22.7583 65.7306
rfemur -17.778 -11.7382 21.6606
rtibia 32.2004
rfoot -17.7042 -22.7053
rtoes -10.5946
lfemur -13.4296 -3.92872 -14.2422
ltibia 18.3048
lfoot -9.9674 -23.8508
ltoes 4.30583
